<svg width="20" height="24" viewBox="0 0 20 24" fill="none" xmlns="http://www.w3.org/2000/svg">
<path d="M14.4 10.5741C14.4 11.68 13.9607 12.7406 13.1787 13.5226C12.3967 14.3046 11.3361 14.7439 10.2302 14.7439C9.12433 14.7439 8.06373 14.3046 7.28174 13.5226C6.49975 12.7406 6.06044 11.68 6.06044 10.5741C6.06044 9.4682 6.49975 8.4076 7.28174 7.62561C8.06373 6.84363 9.12433 6.40431 10.2302 6.40431C11.3361 6.40431 12.3967 6.84363 13.1787 7.62561C13.9607 8.4076 14.4 9.4682 14.4 10.5741ZM13.0101 10.5741C13.0101 9.83683 12.7172 9.12976 12.1959 8.60844C11.6746 8.08712 10.9675 7.79424 10.2302 7.79424C9.49296 7.79424 8.78589 8.08712 8.26457 8.60844C7.74324 9.12976 7.45037 9.83683 7.45037 10.5741C7.45037 11.3114 7.74324 12.0184 8.26457 12.5398C8.78589 13.0611 9.49296 13.354 10.2302 13.354C10.9675 13.354 11.6746 13.0611 12.1959 12.5398C12.7172 12.0184 13.0101 11.3114 13.0101 10.5741ZM17.1104 17.4612C18.9352 15.6354 19.9603 13.1597 19.9603 10.5783C19.9603 7.99687 18.9352 5.52113 17.1104 3.69534C16.2069 2.79177 15.1343 2.07501 13.9538 1.586C12.7733 1.09698 11.508 0.845287 10.2302 0.845287C8.95244 0.845287 7.68718 1.09698 6.50668 1.586C5.32618 2.07501 4.25356 2.79177 3.35008 3.69534C1.52523 5.52113 0.500122 7.99687 0.500122 10.5783C0.500122 13.1597 1.52523 15.6354 3.35008 17.4612L5.46416 19.5447L8.30378 22.3037L8.48864 22.4677C9.56584 23.3406 11.1434 23.285 12.1581 22.3037L15.5425 19.0096L17.1104 17.4612ZM4.32998 4.67524C5.1045 3.89986 6.02426 3.28474 7.03667 2.86506C8.04907 2.44537 9.13427 2.22936 10.2302 2.22936C11.3262 2.22936 12.4114 2.44537 13.4238 2.86506C14.4362 3.28474 15.3559 3.89986 16.1305 4.67524C17.6514 6.19818 18.5258 8.24942 18.5714 10.4013C18.617 12.5532 17.8302 14.6396 16.3751 16.2255L16.1305 16.4813L14.2944 18.2938L11.1948 21.3085L11.0642 21.4197C10.8234 21.5999 10.5307 21.6972 10.23 21.697C9.92925 21.6967 9.63671 21.599 9.39627 21.4183L9.267 21.3071L5.12502 17.2694L4.32998 16.4813L4.08535 16.2269C2.63025 14.641 1.84347 12.5545 1.88904 10.4027C1.93462 8.25081 2.80903 6.19818 4.32998 4.67524Z" fill="white"/>
</svg>
