<svg width="20" height="20" viewBox="0 0 20 20" fill="none" xmlns="http://www.w3.org/2000/svg">
<path d="M7 4.639V18.5M13 1V15M1 6.71C1 5.236 1 4.5 1.393 4.07C1.53209 3.91703 1.70129 3.79447 1.89 3.71C2.422 3.474 3.121 3.707 4.519 4.173C5.586 4.529 6.119 4.707 6.659 4.688C6.8571 4.68149 7.05406 4.65536 7.247 4.61C7.772 4.485 8.24 4.173 9.176 3.55L10.558 2.628C11.758 1.828 12.357 1.428 13.045 1.337C13.733 1.244 14.417 1.472 15.784 1.928L16.949 2.316C17.939 2.646 18.434 2.811 18.717 3.204C19 3.597 19 4.119 19 5.162V13.291C19 14.764 19 15.501 18.607 15.931C18.4677 16.0832 18.2985 16.2051 18.11 16.289C17.578 16.526 16.879 16.293 15.481 15.827C14.414 15.471 13.881 15.293 13.341 15.312C13.1429 15.3185 12.9459 15.3446 12.753 15.39C12.228 15.515 11.76 15.827 10.824 16.45L9.442 17.372C8.242 18.172 7.643 18.572 6.955 18.663C6.267 18.756 5.583 18.528 4.216 18.072L3.051 17.684C2.061 17.354 1.566 17.189 1.283 16.796C1 16.403 1 15.88 1 14.838V6.71Z" stroke="#5E5E5E" stroke-width="2"/>
</svg>
