<svg width="22" height="18" viewBox="0 0 22 18" fill="none" xmlns="http://www.w3.org/2000/svg">
<path d="M11.0004 0.5C16.1146 0.500171 20.3738 4.1581 21.308 9C20.3748 13.8418 16.1147 17.4998 11.0004 17.5C5.88581 17.5 1.62493 13.8421 0.691772 9C1.62493 4.15792 5.88581 0.5 11.0004 0.5ZM11.0004 1.50684C8.84862 1.50687 6.76043 2.23633 5.07751 3.57715C3.39453 4.9181 2.21636 6.79115 1.73572 8.88867L1.71033 9L1.73572 9.11133C2.21503 11.21 3.39259 13.0835 5.07556 14.4258C6.75856 15.768 8.84766 16.4995 11.0004 16.5C13.1531 16.4997 15.2421 15.7689 16.9252 14.4268C18.6084 13.0845 19.7857 11.2101 20.265 9.11133L20.2914 9L20.265 8.88867C19.7844 6.79115 18.6062 4.9181 16.9232 3.57715C15.2403 2.23639 13.1521 1.50684 11.0004 1.50684ZM11.0004 5C12.0611 5.0001 13.0784 5.42181 13.8285 6.17188C14.5785 6.922 15.0004 7.93922 15.0004 9C15.0004 10.0608 14.5785 11.078 13.8285 11.8281C13.0784 12.5782 12.0611 12.9999 11.0004 13C9.9395 13 8.92141 12.5783 8.17126 11.8281C7.42131 11.078 7.00037 10.0607 7.00037 9C7.00037 7.93928 7.42131 6.92199 8.17126 6.17188C8.92141 5.42173 9.9395 5 11.0004 5ZM11.0004 6C10.2047 6 9.44091 6.3163 8.8783 6.87891C8.31588 7.44149 8.00037 8.2045 8.00037 9C8.00037 9.7955 8.31588 10.5585 8.8783 11.1211C9.44091 11.6837 10.2047 12 11.0004 12C11.7959 11.9999 12.5589 11.6836 13.1215 11.1211C13.684 10.5585 14.0004 9.79556 14.0004 9C14.0004 8.20444 13.684 7.4415 13.1215 6.87891C12.5589 6.31638 11.7959 6.0001 11.0004 6Z" fill="white" stroke="white"/>
</svg>
