<svg width="20" height="20" viewBox="0 0 20 20" fill="none" xmlns="http://www.w3.org/2000/svg">
<path d="M8.99497 2.68V6.56C8.99498 6.88127 8.93153 7.19938 8.80829 7.49606C8.68504 7.79275 8.50442 8.06218 8.27678 8.28889C8.04915 8.51559 7.77898 8.69511 7.48179 8.81714C7.1846 8.93918 6.86624 9.00132 6.54497 9H2.68497C2.36457 9.00194 2.04708 8.93917 1.75153 8.81545C1.45597 8.69173 1.18844 8.50961 0.964972 8.28C0.738539 8.05467 0.559164 7.78657 0.437275 7.49129C0.315387 7.19601 0.253418 6.87944 0.254972 6.56V2.69C0.254967 2.0446 0.510664 1.42549 0.966093 0.968185C1.42152 0.510883 2.03958 0.252645 2.68497 0.25H6.55497C6.87504 0.250308 7.19186 0.314103 7.4871 0.437692C7.78234 0.561281 8.05013 0.742209 8.27497 0.97C8.50291 1.19264 8.68403 1.45862 8.80768 1.75228C8.93133 2.04594 8.99501 2.36137 8.99497 2.68ZM19.745 2.69V6.56C19.7398 7.2038 19.4824 7.81991 19.0281 8.27609C18.5738 8.73227 17.9587 8.99217 17.315 9H13.435C12.7882 8.99604 12.1681 8.74155 11.705 8.29C11.4787 8.06249 11.2995 7.79258 11.1777 7.49572C11.0558 7.19886 10.9937 6.88088 10.995 6.56V2.69C10.9936 2.36969 11.0566 2.05236 11.1803 1.75689C11.304 1.46141 11.4858 1.19382 11.715 0.97C11.9398 0.742209 12.2076 0.561281 12.5028 0.437692C12.7981 0.314103 13.1149 0.250308 13.435 0.25H17.305C17.9505 0.255227 18.5681 0.513976 19.0245 0.970437C19.481 1.4269 19.7397 2.04449 19.745 2.69ZM19.745 13.44V17.31C19.7398 17.9538 19.4824 18.5699 19.0281 19.0261C18.5738 19.4823 17.9587 19.7422 17.315 19.75H13.435C12.7841 19.7566 12.1562 19.5091 11.685 19.06C11.4578 18.8331 11.278 18.5634 11.1561 18.2664C11.0342 17.9693 10.9726 17.651 10.975 17.33V13.46C10.9737 13.1397 11.0367 12.8224 11.1604 12.5269C11.2841 12.2315 11.4659 11.9639 11.695 11.74C11.9198 11.5123 12.1876 11.3314 12.4829 11.2078C12.7781 11.0842 13.0949 11.0204 13.415 11.02H17.285C17.9305 11.0252 18.5481 11.284 19.0045 11.7404C19.461 12.1969 19.7197 12.8145 19.725 13.46L19.745 13.44ZM8.99497 13.45V17.32C8.98711 17.9655 8.72583 18.582 8.26749 19.0366C7.80916 19.4912 7.19051 19.7474 6.54497 19.75H2.68497C2.36549 19.7513 2.04891 19.6894 1.75349 19.5677C1.45807 19.4461 1.18966 19.2671 0.963753 19.0412C0.737843 18.8153 0.558901 18.5469 0.437251 18.2515C0.3156 17.9561 0.253649 17.6395 0.254972 17.32V13.45C0.257549 12.8045 0.513765 12.1858 0.968356 11.7275C1.42295 11.2691 2.03948 11.0079 2.68497 11H6.55497C7.20339 11.0056 7.82405 11.2639 8.28497 11.72C8.74106 12.1801 8.99635 12.8021 8.99497 13.45Z" fill="white"/>
</svg>
