<svg width="21" height="20" viewBox="0 0 21 20" fill="none" xmlns="http://www.w3.org/2000/svg">
<path d="M18.9 10.66C18.7397 10.4775 18.6513 10.2429 18.6513 9.99999C18.6513 9.75708 18.7397 9.52248 18.9 9.33999L20.18 7.89999C20.3211 7.74266 20.4087 7.54469 20.4302 7.33449C20.4518 7.1243 20.4062 6.91267 20.3 6.72999L18.3 3.26999C18.1949 3.08751 18.0349 2.94286 17.8428 2.85667C17.6506 2.77048 17.4362 2.74714 17.23 2.78999L15.35 3.16999C15.1108 3.21942 14.8618 3.17958 14.6499 3.05799C14.438 2.9364 14.278 2.74147 14.2 2.50999L13.59 0.679987C13.5229 0.481366 13.3951 0.308852 13.2246 0.186829C13.0542 0.0648056 12.8497 -0.000554495 12.64 -1.33329e-05H8.64002C8.42195 -0.0113954 8.20615 0.048913 8.02558 0.171701C7.84501 0.294488 7.7096 0.473006 7.64002 0.679987L7.08002 2.50999C7.00202 2.74147 6.84199 2.9364 6.63013 3.05799C6.41827 3.17958 6.16924 3.21942 5.93002 3.16999L4.00002 2.78999C3.80457 2.76237 3.60532 2.79321 3.42737 2.87863C3.24941 2.96404 3.10072 3.10021 3.00002 3.26999L1.00002 6.72999C0.891178 6.91064 0.84224 7.12107 0.860201 7.33121C0.878161 7.54135 0.962101 7.74043 1.10002 7.89999L2.37002 9.33999C2.53034 9.52248 2.61875 9.75708 2.61875 9.99999C2.61875 10.2429 2.53034 10.4775 2.37002 10.66L1.10002 12.1C0.962101 12.2595 0.878161 12.4586 0.860201 12.6688C0.84224 12.8789 0.891178 13.0893 1.00002 13.27L3.00002 16.73C3.10512 16.9125 3.26514 17.0571 3.45727 17.1433C3.6494 17.2295 3.86384 17.2528 4.07002 17.21L5.95002 16.83C6.18924 16.7806 6.43827 16.8204 6.65013 16.942C6.86199 17.0636 7.02202 17.2585 7.10002 17.49L7.71002 19.32C7.7796 19.527 7.91501 19.7055 8.09558 19.8283C8.27615 19.9511 8.49195 20.0114 8.71002 20H12.71C12.9197 20.0005 13.1242 19.9352 13.2946 19.8131C13.4651 19.6911 13.5929 19.5186 13.66 19.32L14.27 17.49C14.348 17.2585 14.508 17.0636 14.7199 16.942C14.9318 16.8204 15.1808 16.7806 15.42 16.83L17.3 17.21C17.5062 17.2528 17.7206 17.2295 17.9128 17.1433C18.1049 17.0571 18.2649 16.9125 18.37 16.73L20.37 13.27C20.4762 13.0873 20.5218 12.8757 20.5002 12.6655C20.4787 12.4553 20.3911 12.2573 20.25 12.1L18.9 10.66ZM17.41 12L18.21 12.9L16.93 15.12L15.75 14.88C15.0298 14.7328 14.2806 14.8551 13.6446 15.2238C13.0086 15.5925 12.5302 16.1818 12.3 16.88L11.92 18H9.36002L9.00002 16.86C8.76987 16.1618 8.2914 15.5725 7.65542 15.2038C7.01945 14.8351 6.27024 14.7128 5.55002 14.86L4.37002 15.1L3.07002 12.89L3.87002 11.99C4.36197 11.44 4.63395 10.7279 4.63395 9.98999C4.63395 9.25205 4.36197 8.54001 3.87002 7.98999L3.07002 7.08999L4.35002 4.88999L5.53002 5.12999C6.25024 5.27721 6.99945 5.15487 7.63542 4.78619C8.2714 4.4175 8.74987 3.82815 8.98002 3.12999L9.36002 1.99999H11.92L12.3 3.13999C12.5302 3.83815 13.0086 4.4275 13.6446 4.79619C14.2806 5.16487 15.0298 5.28721 15.75 5.13999L16.93 4.89999L18.21 7.11999L17.41 8.01999C16.9236 8.56875 16.655 9.27667 16.655 10.01C16.655 10.7433 16.9236 11.4512 17.41 12ZM10.64 5.99999C9.84889 5.99999 9.07553 6.23458 8.41774 6.67411C7.75994 7.11363 7.24725 7.73835 6.9445 8.46925C6.64175 9.20016 6.56254 10.0044 6.71688 10.7803C6.87122 11.5563 7.25218 12.269 7.81159 12.8284C8.371 13.3878 9.08373 13.7688 9.85966 13.9231C10.6356 14.0775 11.4398 13.9983 12.1708 13.6955C12.9017 13.3928 13.5264 12.8801 13.9659 12.2223C14.4054 11.5645 14.64 10.7911 14.64 9.99999C14.64 8.93912 14.2186 7.9217 13.4684 7.17156C12.7183 6.42141 11.7009 5.99999 10.64 5.99999ZM10.64 12C10.2445 12 9.85778 11.8827 9.52888 11.6629C9.19998 11.4432 8.94363 11.1308 8.79226 10.7654C8.64088 10.3999 8.60128 9.99777 8.67845 9.60981C8.75562 9.22184 8.9461 8.86548 9.2258 8.58577C9.50551 8.30607 9.86188 8.11559 10.2498 8.03842C10.6378 7.96125 11.0399 8.00085 11.4054 8.15223C11.7708 8.3036 12.0832 8.55995 12.303 8.88885C12.5227 9.21774 12.64 9.60442 12.64 9.99999C12.64 10.5304 12.4293 11.0391 12.0542 11.4142C11.6792 11.7893 11.1705 12 10.64 12Z" fill="#5E5E5E"/>
</svg>
